<svg xmlns="http://www.w3.org/2000/svg" viewBox="0 0 1254 1254" role="img" aria-label="WiseNest"><title>WiseNest</title><path fill="#042C51" d="M532,1C594.4,1 656.7,1 719.8,1.3C730.7,1.7 740.9,1.8 751.5,1.9C765.7,1.9 779.3,1.9 793.5,2C805.6,2.2 817.3,2.4 828.9,2.5C882.6,3.2 936.2,3.6 989.6,10.1C1024.6,14.3 1058.9,21.9 1091,36.8C1167.6,72.3 1214.9,132.2 1236.1,213.3C1245.8,250.3 1249.3,288.1 1250.8,326.1C1252.4,366.7 1253,407.3 1254,448.4C1254,463.2 1254.1,477.6 1254.1,492.4C1254.1,504.5 1254.1,516.2 1254.1,528.3C1254,537.6 1254,546.4 1254.1,555.2C1254.1,557.8 1254.7,560.4 1255,563C1255,608.7 1255,654.4 1254.8,700.9C1254.4,717.5 1254.3,733.3 1254.2,749.6C1254.2,763.1 1254.1,776.1 1254.1,789.5C1254.1,799.3 1254.1,808.7 1254,818.5C1252.3,865.6 1251.3,912.2 1248.9,958.8C1247.2,992.2 1242.2,1025.4 1231.9,1057.4C1199.8,1156.8 1131.4,1216 1030.5,1238.9C990.2,1248.1 949.1,1250.3 908,1251.8C877.3,1252.9 846.7,1253.4 815.6,1254C806.1,1254 797.1,1254.1 787.6,1254.1C777.1,1254.1 767.1,1254.1 756.6,1254.1C747.1,1254.1 738.1,1254.1 728.6,1254.1C723.7,1254 719.2,1253.9 714.7,1254.1C709.8,1254.2 704.9,1254.7 700,1255C652,1255 604,1255 555.1,1254.8C544.2,1254.4 534,1254.3 523.4,1254.2C511.5,1254.1 500,1254 488.5,1254C487,1254 485.5,1254.7 484,1255C477.3,1255 470.6,1255 463.3,1254.6C435.1,1253.8 407.7,1253.3 380.2,1252.8C379.2,1252.8 378.2,1253 377.3,1253.1C377.5,1253.7 377.8,1254.4 378,1255C376.6,1255 375.2,1255 373.9,1254.6C372.9,1253.8 371.8,1253.4 370.6,1252.9C370.8,1253.6 370.9,1254.3 371,1255C364.6,1255 358.3,1255 352,1254.8C350.7,1253.7 349.4,1252.1 348,1252C343.2,1251.4 338.3,1251.3 333.5,1251.1C295.5,1249.3 257.7,1246.5 220.5,1237.9C162.8,1224.6 113.7,1196.9 74.9,1151.7C46.8,1118.9 29.4,1080.8 19,1039.2C8.3,996.6 5.9,953 4.2,909.4C2.9,876 2.6,842.5 2,808.6C2,797.4 2,786.7 1.9,776C1.9,774.7 1.3,773.3 1,772C1,757.3 1,742.6 1.3,727.2C1.4,717.3 1.2,708.2 1,699C1,652.6 1,606.3 1.2,559.1C1.7,544.9 1.9,531.5 2,518.1C2,517.4 1.3,516.7 1,516C1,509.6 1,503.3 1.4,496.2C1.8,484 1.8,472.5 1.9,460.5C1.9,447.7 1.9,435.3 2,422.5C3.7,380 4.8,337.8 7.3,295.8C9.2,262.6 14.3,229.9 24.1,198C43,136.7 79.1,88.4 133.2,53.8C169.7,30.3 210.4,18.5 253,12C295.2,5.6 337.9,4.2 380.5,3.2C409,2.5 437.5,2.3 466.4,2C478.6,2 490.3,1.9 502.4,1.9C508,2 513.2,2.1 518.3,1.9C522.9,1.8 527.4,1.3 532,1M759.7,475.1C758.9,474.7 758,474.1 757.1,474.1C736.5,474 716,474 695.4,474.1C694.3,474.1 693.1,475.3 691.9,476.8C670.1,550.9 648.4,625.1 626.3,700.3C625.3,697.9 624.6,696.2 623.9,694.6C594.8,622.5 565.6,550.3 536.3,478.2C535.4,476 533.1,474.5 531.4,472.7C529.8,474.4 527.6,475.8 526.7,477.8C497.3,548.2 468.1,618.5 438.8,688.9C437.4,692.2 435.9,695.5 434,699.8C433.4,697.8 433.1,696.8 432.9,695.9C419.6,651.8 406.3,607.7 392.9,563.7C384,534.4 375,505.2 365.7,475.2C365.1,474.8 364.4,474.1 363.7,474.1C342.2,474 320.7,474 299.2,474.1C298.2,474.1 297.1,475.6 296.5,477C297.2,479.5 297.9,482.1 298.7,484.6C314.2,532.7 329.7,580.7 345.3,628.7C369.4,703.1 393.6,777.5 417.9,851.8C418.6,854.1 420.2,856.1 421.4,858.3C422.8,856.2 424.6,854.4 425.6,852.1C456.8,780.9 487.9,709.7 519.1,638.5C522.6,630.5 526.2,622.6 530.2,613.7C536.2,628.3 541.6,641.9 547.2,655.4C571.4,713.7 595.6,771.9 619.8,830.1C623.5,839 627.1,847.9 631,856.8C631.4,857.9 633,859.2 634,859.2C635,859.2 636.2,857.7 637,856.7C637.7,855.8 637.8,854.5 638.2,853.4C669.9,756.2 701.8,659.1 733.5,561.9C742.2,535 750.5,507.9 759.6,481.1C760,481.3 760.3,481.6 760.4,482.7C760.3,484 760.3,485.4 760.3,486.7C760.2,588.8 760.2,690.8 760.1,792.9C760.1,813 760.1,833.2 760.1,853.3C760.1,856.3 760.2,858.8 764.5,858.8C780.3,858.5 796.1,858.6 812.9,858.7C816.8,858.7 820.7,858.7 825.2,858.7C825.2,787.9 825.2,717.8 825.2,646.6C827.1,648.6 828.3,649.8 829.3,651C849.7,674.8 870,698.7 890.4,722.5C928.6,766.9 966.9,811.4 1005.2,855.8C1007,857.9 1009.2,859.9 1011.5,861.3C1017.2,864.6 1020.9,862.4 1020.9,855.9C1021.1,804.7 1021.5,753.6 1021.7,702.4C1021.9,628.3 1021.9,554.1 1022,480C1022,478.4 1022,476.8 1022,475.2C999.2,475.2 977.2,475.2 954.5,475.2C954.5,549.9 954.5,624.1 954.5,699.7C942,685.3 930.4,671.9 918.9,658.6C879,612.5 839.1,566.3 799.2,520.2C787.5,506.7 775.5,493.3 763.2,479.2C762.2,478.2 761.1,477.2 759.9,475.9C759.9,475.9 760.1,475.8 759.7,475.1M945.9,287.9C945.9,287.9 946.2,288.2 945.8,288.8C925.3,301.9 904.8,315 886.6,331.3C863.4,352.2 846.5,377.1 838.8,407.6C835.6,420.5 833.6,433.5 836.3,447.7C837.8,444.2 838.9,441.7 840,439.1C847.3,422.1 859.2,410.5 877.7,406.4C882.7,405.3 887.8,404.6 893,404C914.1,401.5 934,395.8 952.1,384.2C974.4,369.9 989.7,349.6 1001,326.1C1014.9,297.2 1022.1,266.5 1025.8,234.9C1026.7,227.4 1027.1,219.8 1027.7,212C1026,212.1 1025,212.2 1024,212.3C1011.2,214.2 998.4,216.4 985.5,218.1C962.2,221 938.9,223.5 916.4,230.9C887.3,240.4 862.8,256 846.5,282.7C834.6,302.3 829.2,323.8 828.3,346.4C827.8,359.9 828.6,373.4 828.8,387.4C830,386.9 830.2,386.8 830.2,386.7C830.9,385.2 831.6,383.7 832.2,382.2C853.9,331.3 894.5,303.2 945.9,287.9M259.1,447.6C293.1,378.8 341.8,322.8 407,282C485.7,232.6 571.6,212 664.2,221.3C717.9,226.7 768.4,242.8 815.8,268.7C818.1,270 820.4,271.1 822.5,272.2C829.1,263.5 835.4,255.3 841.8,246.9C840.6,246.1 839.5,245.2 838.2,244.5C822.4,236.3 807,227.2 790.6,220.3C722.7,191.7 651.9,181 578.4,188.8C532.2,193.7 487.7,205.4 445.2,224.2C369.9,257.4 308.9,308.2 262.7,376.4C217.4,443.2 193,517.2 187.2,597.4C184.5,633.7 186.8,669.7 193,705.5C206.9,784.6 239.4,855.3 293.1,915.1C372,1003.3 470.1,1055.8 588.5,1068.2C635.4,1073.1 682.1,1070.7 728.1,1059.9C825.3,1037.1 906.1,987.6 968.9,909.6C975.9,900.8 982.4,891.6 989.1,882.5C981.3,875.7 974.1,869.5 966.8,863.1C965.6,864.7 964.7,865.9 963.9,867.1C935.4,908.1 900.8,943 859.5,970.8C779.8,1024.7 692,1047.7 596,1039.2C555.2,1035.5 515.9,1025.7 478.2,1009.9C404.1,978.7 343.1,930.5 295.9,865.5C237.9,785.4 211.9,695.8 218.8,597C222.5,544.8 236.1,495.3 259.1,447.6z"/><path fill="#FEFEFE" d="M759.1,480.9C750.5,507.9 742.2,535 733.5,561.9C701.8,659.1 669.9,756.2 638.2,853.4C637.8,854.5 637.7,855.8 637,856.7C636.2,857.7 635,859.2 634,859.2C633,859.2 631.4,857.9 631,856.8C627.1,847.9 623.5,839 619.8,830.1C595.6,771.9 571.4,713.7 547.2,655.4C541.6,641.9 536.2,628.3 530.2,613.7C526.2,622.6 522.6,630.5 519.1,638.5C487.9,709.7 456.8,780.9 425.6,852.1C424.6,854.4 422.8,856.2 421.4,858.3C420.2,856.1 418.6,854.1 417.9,851.8C393.6,777.5 369.4,703.1 345.3,628.7C329.7,580.7 314.2,532.7 298.7,484.6C297.9,482.1 297.2,479.5 296.7,476.4C320,475.9 343,476 366,476C375,505.2 384,534.4 392.9,563.7C406.3,607.7 419.6,651.8 432.9,695.9C433.1,696.8 433.4,697.8 434,699.8C435.9,695.5 437.4,692.2 438.8,688.9C468.1,618.5 497.3,548.2 526.7,477.8C527.6,475.8 529.8,474.4 531.4,472.7C533.1,474.5 535.4,476 536.3,478.2C565.6,550.3 594.8,622.5 623.9,694.6C624.6,696.2 625.3,697.9 626.3,700.3C648.4,625.1 670.1,550.9 692.4,476.3C715.3,475.8 737.7,475.8 760.1,475.8C760.1,475.8 759.9,475.9 759.9,476.3C759.9,477.1 759.9,477.5 759.6,478.1C759.3,479.2 759.2,480.1 759.1,480.9z"/><path fill="#75BC8D" d="M258.9,448C236.1,495.3 222.5,544.8 218.8,597C211.9,695.8 237.9,785.4 295.9,865.5C343.1,930.5 404.1,978.7 478.2,1009.9C515.9,1025.7 555.2,1035.5 596,1039.2C692,1047.7 779.8,1024.7 859.5,970.8C900.8,943 935.4,908.1 963.9,867.1C964.7,865.9 965.6,864.7 966.8,863.1C974.1,869.5 981.3,875.7 989.1,882.5C982.4,891.6 975.9,900.8 968.9,909.6C906.1,987.6 825.3,1037.1 728.1,1059.9C682.1,1070.7 635.4,1073.1 588.5,1068.2C470.1,1055.8 372,1003.3 293.1,915.1C239.4,855.3 206.9,784.6 193,705.5C186.8,669.7 184.5,633.7 187.2,597.4C193,517.2 217.4,443.2 262.7,376.4C308.9,308.2 369.9,257.4 445.2,224.2C487.7,205.4 532.2,193.7 578.4,188.8C651.9,181 722.7,191.7 790.6,220.3C807,227.2 822.4,236.3 838.2,244.5C839.5,245.2 840.6,246.1 841.8,246.9C835.4,255.3 829.1,263.5 822.5,272.2C820.4,271.1 818.1,270 815.8,268.7C768.4,242.8 717.9,226.7 664.2,221.3C571.6,212 485.7,232.6 407,282C341.8,322.8 293.1,378.8 258.9,448z"/><path fill="#75BC8D" d="M763.6,479.8C775.5,493.3 787.5,506.7 799.2,520.2C839.1,566.3 879,612.5 918.9,658.6C930.4,671.9 942,685.3 954.5,699.7C954.5,624.1 954.5,549.9 954.5,475.2C977.2,475.2 999.2,475.2 1022,475.2C1022,476.8 1022,478.4 1022,480C1021.9,554.1 1021.9,628.3 1021.7,702.4C1021.5,753.6 1021.1,804.7 1020.9,855.9C1020.9,862.4 1017.2,864.6 1011.5,861.3C1009.2,859.9 1007,857.9 1005.2,855.8C966.9,811.4 928.6,766.9 890.4,722.5C870,698.7 849.7,674.8 829.3,651C828.3,649.8 827.1,648.6 825.2,646.6C825.2,717.8 825.2,787.9 825.2,858.7C820.7,858.7 816.8,858.7 812.2,858.3C809.9,857.6 808.1,857.1 806.4,857C793.7,857 781.1,857 768.4,857C762,857 762,857 762,850.4C762,820.4 762,790.4 762,760.4C762,669.2 762,577.9 762.1,486.7C762.1,484.4 763.1,482.1 763.6,479.8z"/><path fill="#75BC8D" d="M945.6,287.5C894.5,303.2 853.9,331.3 832.2,382.2C831.6,383.7 830.9,385.2 830.2,386.7C830.2,386.8 830,386.9 828.8,387.4C828.6,373.4 827.8,359.9 828.3,346.4C829.2,323.8 834.6,302.3 846.5,282.7C862.8,256 887.3,240.4 916.4,230.9C938.9,223.5 962.2,221 985.5,218.1C998.4,216.4 1011.2,214.2 1024,212.3C1025,212.2 1026,212.1 1027.7,212C1027.1,219.8 1026.7,227.4 1025.8,234.9C1022.1,266.5 1014.9,297.2 1001,326.1C989.7,349.6 974.4,369.9 952.1,384.2C934,395.8 914.1,401.5 893,404C887.8,404.6 882.7,405.3 877.7,406.4C859.2,410.5 847.3,422.1 840,439.1C838.9,441.7 837.8,444.2 836.3,447.7C833.6,433.5 835.6,420.5 838.8,407.6C846.5,377.1 863.4,352.2 886.6,331.3C904.8,315 925.3,301.9 946.3,288.4C947.2,287.7 947.6,287.3 948.1,286.9C948.4,286.8 948.4,286.7 948.4,286.6C948.3,286.7 948.2,286.9 947.7,286.9C946.8,287 946.2,287.3 945.6,287.5z"/><path fill="#75BC8D" d="M763.4,479.5C763.1,482.1 762.1,484.4 762.1,486.7C762,577.9 762,669.2 762,760.4C762,790.4 762,820.4 762,850.4C762,857 762,857 768.4,857C781.1,857 793.7,857 806.4,857C808.1,857.1 809.9,857.6 811.8,858.2C796.1,858.6 780.3,858.5 764.5,858.8C760.2,858.8 760.1,856.3 760.1,853.3C760.1,833.2 760.1,813 760.1,792.9C760.2,690.8 760.2,588.8 760.3,486.7C760.3,485.4 760.3,484 760.6,482C760.5,480.1 760.2,479 759.9,477.9C759.9,477.5 759.9,477.1 760,476.4C761.1,477.2 762.2,478.2 763.4,479.5z"/></svg>